/* XPM */
static char *_534904215258[] = {
/* columns rows colors chars-per-pixel */
"64 64 6 1 ",
"  c black",
". c red",
"X c #A35050",
"o c #0008FF",
"O c #E3D9D9",
"+ c white",
/* pixels */
"++++++++++++++++++++++++++++++++++++++++++++++++++++++++++++++++",
"++++++++++++++++++++++++++++++++++++++++++++++++++++++++++++++++",
"++++++++++++++++++++++++++++++++++++++++++++++++++++++++++++++++",
"++++++++++++++++++++++++++++++++++++++++++++++++++++++++++++++++",
"++++++++++++++++++++++++++++++++++++++++++++++++++++++++++++++++",
"++++++++++++++++++++++++++++++++++++++++++++++++++++++++++++++++",
"++++++++++++++++++++++++++++++++++++++++++++++++++++++++++++++++",
"++++++++++++++++++++++++++++++++++++++++++++++++++++++++++++++++",
"++++++++++++++++++++++++++    ++++++++++++++++++++++++++++++++++",
"++++++++++++++++++++++++   oo   ++++++++++++++++++++++++++++++++",
"+++++++++++++++++++++   ooooooo ++++++++++++++++++++++++++++++++",
"+++++++++++++++                  +++++++++++++++++++++++++++++++",
"++++++++++++++++++++  XX..XX.XXX +++++++++++++++++++++++++++++++",
"++++++++++++++++++++ .XXX.XXX.XX +++++++++++++++++++++++++++++++",
"+++++++++++++++++++ X.X XXX ..X. +++++++++++++++++++++++++++++++",
"+++++++++++++++++++ XXXXXXXXXX.. +++++++++++++++++++++++++++++++",
"+++++++++++++++++++ XX XXXXX XXX +++++++++++++++++++++++++++++++",
"+++++++++++++++++++  XX   XX XX ++++++++++++++++++++++++++++++++",
"++++++++++++++++++++  X O    X +++++++++++++++++++++++++++++++++",
"+++++++++++++++++++++    XO  X +++++++++++++++++++++++++++++++++",
"++++++++++++++++++++++ X O  X  +++++++++++++++++++++++++++++++++",
"++++++++++++++++++++++ X   XX     ++++++++++++++++++++++++++++++",
"+++++++++++++++++++++  XXXXXXXXXXX  ++++++++++++++++++++++++++++",
"+++++++++++++++++     XXXXXXXXXXXXXX  ++++++++++++++++++++++++++",
"+++++++++++       XXXXXXXXXXXXXXXXXXXX +++++++++++++++++++++++++",
"+++++++    XXXXXXXXXXXXXXXXXXXXXXXXXXXX ++++++++++++++++++++++++",
"++++   XXXXXXXXXXXXXXXXXXXXXXXXX   XXXXX +++++++++++++++++++++++",
"+++  XXXXXXXXXXXXXXXXXXXXXXXXX   +  XXXXX  +++++++++++++++++++++",
"++ XXXXXXXXXXXXXXXXXXXXXXXXXXX ++++  XXXXX +++++++++++++++++++++",
"+  XXXXXXXXXXXXXX  XXXXXXXXXXX ++++++ XXXX  ++++++++++++++++++++",
"+ XXXXXXXXXXXX   ++  XXXXXXXXX ++++++ XXXXX  +++++++++++++++++++",
"+     XXXXXXX  +++++ XXXXXXXXX +++++++ XXXXX +++++++++++++++++++",
"+ XXXXXXXXXX  ++++++ XXXXXXXXX +++++++ XXXXX +++++++++++++++++++",
"+ XXXXXX XX  +++++++ XXXXXXXXX +++++++ XXXXX +++++++++++++++++++",
"+ X  XXX X +++++++++ XXXXXXXXX +++++++ XX XX +++++++++++++++++++",
"++ XXXXX   +++++++++ XXXXXXXXX +++++++ X  XX  ++++++++++++++++++",
"++ XXXX  +++++++++++ XXXXXXXXX +++++++   X XX ++++++++++++++++++",
"++  XX  ++++++++++++ XXXXXXXXX ++++++++  X X  ++++++++++++++++++",
"+++   ++++++++++++++ XXXXXXXXX +++++++++     +++++++++++++++++++",
"+++ +++++++++++++++++ XXXXXXXX +++++++++++++++++++++++++++++++++",
"+++++++++++++++++++++ XXXXXXXX +++++++++++++++++++++++++++++++++",
"+++++++++++++++++++++ XXXXXXXX  ++++++++++++++++++++++++++++++++",
"+++++++++++++++++++++ XXXXXXXXX ++++++++++++++++++++++++++++++++",
"+++++++++++++++++++++ XXXXXXXXX ++++++++++++++++++++++++++++++++",
"+++++++++++++++++++++ XXXXXXXXX ++++++++++++++++++++++++++++++++",
"+++++++++++++++++++++ XXXXXXXXX  +++++++++++++++++++++++++++++++",
"+++++++++++++++++++++ XXXXXXXXXX +++++++++++++++++++++++++++++++",
"+++++++++++++++++++++ XXXXXXXXXX +++++++++++++++++++++++++++++++",
"+++++++++++++++++++++ XXXXXXXXXX +++++++++++++++++++++++++++++++",
"+++++++++++++++++++++ XXXXXXXXXX +++++++++++++++++++++++++++++++",
"+++++++++++++++++++++ XXXXXXXXXX +++++++++++++++++++++++++++++++",
"++++++++++++++++++++ XXXXXXXXXXX +++++    ++++++++++++++++++++++",
"++++++++++++++++++++ XXXXXXXXXXX +++   XX  +++++++++++++++++++++",
"+++++++++++++++++++  XXXXXXXXXXX     XXX  X ++++++++++++++++++++",
"++++++++++++++++++  XXXXXXXXXXXX  XXXXXXXXX ++++++++++++++++++++",
"+++++++++         XXXXXXXXXXXXXXXXXXXXXXXX  ++++++++++++++++++++",
"++++++   XXXXXXXXXXXXXX    XXXXXXXXXXXXXXX  ++++++++++++++++++++",
"++++  X XXXXXXXXXXXX   +++  XXXXXXXXXXXXX   ++++++++++++++++++++",
"++++ XX  XXXXXXXXXX  ++++++  XXXXXXXXXXXXX  ++++++++++++++++++++",
"+++ XXXXXXXXXXXXX  +++++++++ XXXXXXXXXXXX  +++++++++++++++++++++",
"+++   XXXXXXXXX   ++++++++++ XXXXXXXXXXX +++++++++++++++++++++++",
"+++ XXXXXXXXXX  ++++++++++++   XXXXXXX   +++++++++++++++++++++++",
"+++            +++++++++++++++         +++++++++++++++++++++++++",
"++++++++++++++++++++++++++++++++++++++++++++++++++++++++++++++++"
};
