/* XPM */
static char *_535148875916[] = {
/* columns rows colors chars-per-pixel */
"64 64 10 1 ",
"  c black",
". c #122D11",
"X c #542F11",
"o c #723F16",
"O c #194317",
"+ c #266B23",
"@ c #654830",
"# c #C35701",
"$ c #C16F2F",
"% c white",
/* pixels */
"%%%%%%%%%%%%%%%%%%%%%%%%%%%%%%%%%%%%%%%%%%%%%%%%%%%%%%%%%%%%%%%%",
"%%%%%%%%%%%%%%%%%%%%%%%%%%%%%%%%%%%%%%%%%%%%%%%%%%%%%%%%%%%%%%%%",
"%%%%%%%%%%%%%%%%%%%%%%%%%%%%%%%%%%%%%%%%%%%%%%%%%%%%%%%%%%%%%%%%",
"%%%%%%%%%%%%%%%%%%%%%%%%%%%%%%%%%%%%%%%%%%%%%%%%%%%%%%%%%%%%%%%%",
"%%%%%%%%%%%%%%%%%%%%%%%%%%%%%%%%%%%%%%%%%%%%%%%%%%%%%%%%%%%%%%%%",
"%%%%%%%%%%%%%%%%%%%%%%%%%%%%%%%%%%%%%%%%%%%%%%%%%%%%%%%%%%%%%%%%",
"%%%%%%%%%%%%%%%%%%%%%%%%%%%%%%%%%%%%%%%%%%%%%%%%%%%%%%%%%%%%%%%%",
"%%%%%%%%%%%%%%%%%%%%%%%%%%%%%%%%%%%%%%%%%%%%%%%%%%%%%%%%%%%%%%%%",
"%%%%%%%%%%%%%%%%%%%%%%%%%%%%%%%%%%%%%%%%%%%%%%%%%%%%%%%%%%%%%%%%",
"%%%%%%%%%%%%%%%%%%%%%%%%%%%%%%%%%%%%%%%%%%%%%%%%%%%%%%%%%%%%%%%%",
"%%%%%%%%%%%%%%%%%%%%%%%%%%%%%%%%%%%%%%%%%%%%%%%%%%%%%%%%%%%%%%%%",
"%%%%%%%%%%%%%%%%%%%%%%%%%%%%%%%%%%%%%%%%%%%%%%%%%%%%%%%%%%%%%%%%",
"%%%%%%%%%%%%%%%%%%%%%%%%%%%%   %%%%%%%%%%%%%%%%%%%%%%%%%%%%%%%%%",
"%%%%%%%%%%%%%%%%      %%%%%  + %%%%%    %%%%%%%%%%%%%%%%%%%%%%%%",
"%%%%%%%%%%%%%%%% O+OO   %%  +O %%%   +O %%%%%%%%%%%%%%%%%%%%%%%%",
"%%%%%%%%%%%%%%%%% O++OO  % O+O %   ++OO %%%%%%%%%%%%%%%%%%%%%%%%",
"%%%%%%%%%%%%%%%%%  O++OO   O..  +++OOO  %%%%%%%%%%%%%%%%%%%%%%%%",
"%%%%%%%%%%%%%%%%%%  OO++O  ... +OOOOO  %%%%%%%%%%%%%%%%%%%%%%%%%",
"%%%%%%%%%%%%%%%%%%%  OO++O  . +OOOO  %%%%%%%%%%%%%%%%%%%%%%%%%%%",
"%%%%%%%%%%%%%%%%%%%%  OO++O  +OOOO  %     %%%%%%%%%%%%%%%%%%%%%%",
"%%%%%%%%%%%%      %%% OO++O  +OOOO    OO  %%%%%%%%%%%%%%%%%%%%%%",
"%%%%%%%%%%   O++OO     OO+O ++OO.  +OO.  %%%%%%%%%%%%%%%%%%%%%%%",
"%%%%%%%%%%     O++O+OO OO+O +OO.. +O..  %%%%%%%%%%%%%%%%%%%%%%%%",
"%%%%%%%%%%%%%%   O+++O O.++ +O..  +.  %%   %%%%%%%%%%%%%%%%%%%%%",
"%%%%%%%%%%%%%%%%  OO++O ..+O+O.. O+. %  O++  %%%%%%%%%%%%%%%%%%%",
"%%%%%%%%%%%%    $   O++O .++O..  +O.   O+O $$    %%%%%%%%%%%%%%%",
"%%%%%%%%%%    +   $  O+O  ..... O+O.  O++O $$$$$$  %%%%%%%%%%%%%",
"%%%%%%%%% $$$ O+     OO+O  .... +OO. OOO.     $$$$$ %%%%%%%%%%%%",
"%%%%%%%% $$$$   +++  OOO+O ... +OO.. +O.   ++   $$$$ %%%%%%%%%%%",
"%%%%%%%% $$$ @@  O++O OO+O    +OO..  O.  O+. @@@ $$$ %%%%%%%%%%%",
"%%%%%%%% $$$ @@@  OO+ OOO+O  O+O... OO. OO. @@@@ $$$ %%%%%%%%%%%",
"%%%%%%%% $$$$ @@@ OO+  OO+. OOOO.  OO.  O. @@@@ $$$$ %%%%%%%%%%%",
"%%%%%%%%% $$$ @@@  OO. OO.. OO... OO.. O.. @@@@ $$$ %%%%%%%%%%%%",
"%%%%%%%%% $$$$     OO.. ... O.... O..  ...     $$$$ %%%%%%%%%%%%",
"%%%%%%%%%% $$$$$$$   .. ... ....  ... ..   $$$$$$$ %%%%%%%%%%%%%",
"%%%%%%%%%%   $$$$$$$$                   $$$$$$$$   %%%%%%%%%%%%%",
"%%%%%%%%%%  #   $$$$$$$$$$$$$$$$$$$$$$$$$$$$$   ## %%%%%%%%%%%%%",
"%%%%%%%%%%%  ###    $$$$$$$$$$$$$$$$$$$$$    ###  %%%%%%%%%%%%%%",
"%%%%%%%%%%% o  #####                     #####  X %%%%%%%%%%%%%%",
"%%%%%%%%%%% #XX   #########################   XXX %%%%%%%%%%%%%%",
"%%%%%%%%%%% ##XXXX    #################    XXXXX# %%%%%%%%%%%%%%",
"%%%%%%%%%%% ###XXXXXXX       ###       XXXXXXXX## %%%%%%%%%%%%%%",
"%%%%%%%%%%% #####XXXXXXXXXXXX   XXXXXXXXXXXX##### %%%%%%%%%%%%%%",
"%%%%%%%%%%%% #########XXXXXXXXXXXXXXXXX######### %%%%%%%%%%%%%%%",
"%%%%%%%%%%%% ###########XXXXXXXXXXXX############ %%%%%%%%%%%%%%%",
"%%%%%%%%%%%% ################################### %%%%%%%%%%%%%%%",
"%%%%%%%%%%%% ################################### %%%%%%%%%%%%%%%",
"%%%%%%%%%%%% ################################### %%%%%%%%%%%%%%%",
"%%%%%%%%%%%%% ################################# %%%%%%%%%%%%%%%%",
"%%%%%%%%%%%%% ################################# %%%%%%%%%%%%%%%%",
"%%%%%%%%%%%%% ################################# %%%%%%%%%%%%%%%%",
"%%%%%%%%%%%%% ################################# %%%%%%%%%%%%%%%%",
"%%%%%%%%%%%%% ################################# %%%%%%%%%%%%%%%%",
"%%%%%%%%%%%%% ################################# %%%%%%%%%%%%%%%%",
"%%%%%%%%%%%%%% ############################### %%%%%%%%%%%%%%%%%",
"%%%%%%%%%%%%%% ############################### %%%%%%%%%%%%%%%%%",
"%%%%%%%%%%%%%% ############################### %%%%%%%%%%%%%%%%%",
"%%%%%%%%%%%%%%% ############################# %%%%%%%%%%%%%%%%%%",
"%%%%%%%%%%%%%%%% XX#######################XX %%%%%%%%%%%%%%%%%%%",
"%%%%%%%%%%%%%%%%% XXX###################XXX %%%%%%%%%%%%%%%%%%%%",
"%%%%%%%%%%%%%%%%%%  XXXXXXXX#####XXXXXXXX  %%%%%%%%%%%%%%%%%%%%%",
"%%%%%%%%%%%%%%%%%%%%   XXXXXXXXXXXXXXX   %%%%%%%%%%%%%%%%%%%%%%%",
"%%%%%%%%%%%%%%%%%%%%%%%    XXXXXXX    %%%%%%%%%%%%%%%%%%%%%%%%%%",
"%%%%%%%%%%%%%%%%%%%%%%%%%%%       %%%%%%%%%%%%%%%%%%%%%%%%%%%%%%"
};
