/* XPM */
static char *_535175274534[] = {
/* columns rows colors chars-per-pixel */
"64 64 5 1 ",
"  c black",
". c #1E1313",
"X c #241717",
"o c #291616",
"O c #381717",
/* pixels */
"OOOOOOOOOOOOOOOOOOOOOOOOOOOOOOOOOOOOOOOOOOOOOOOOOOOOOOOOOOOOOOOO",
"OOOOOOOOOOOOOOOOOOOOOOOOOOOOOOOOOOOOOOOOOOOOOOOOOOOOOOOOOOOOOOOO",
"OO OOOOOOOOOOOOOOOOOO      OOOOOOOOOOOOOOOOOOOOOOOOOOOOOOOOOOOOO",
"oooooooooo     OOOOOOOOOOOOOOOOOOOOOO                      OOOOX",
"OOOOOOOOOOXXXXXXXXXXXXXXXXXXXXXXXXXXXXXXXXXXXXXXXXXXXXXXXXXXXXXO",
".XXXXXXXXX.........OOOOOOOOOOOOOOOOOO...ooooooooooOOOOoooooooooo",
"OO......OOOOOOOOOO...................OOOOOOOOOOOOOooooOOOOOOOOOO",
".OOOOOOOOOOOOOOOOOOOOOOOOOOOOOOOOOOOOOOOOOOOOOOOOOOOOOOOOOOOOOOO",
"oooooooooooooooo.....OOOOOOOOOOOO..............................O",
"OO...........OOOoooooooooooooooooO.......OOOOOOO..........OOOOO.",
".OOOOOOOOOOOO.....................OOOOOOOO.....OOOOOOOOOOO......",
"..........................................OOOOOOOOOOOOOXXXXXXXO.",
"XX.ooooo.......................OOOOOOOOXXXXXXXXXXXXXXXX.......XX",
"OOXXXXXXXXXXXXXXXXooooooooooooooXXXXXXXoOOOOOOOOOOOOOOOOOOOOOOOO",
"O.................XXXXXXXXXXXXXX........oooooooooooooooooooooooo",
"................................................................",
"Oooooooooooooooooooooooooooooooooooooooooooooo..................",
"XXXXXXXXXXXXXXXXXXXOOOOOO.....................oooooooooooooooooO",
"OOOOOOOOOOO........XXXXXX.............XXXXXXXXXXXXXXXXXXX.......",
".........................XXXXXXXXXXXXXOOOOOOOOOOOOOOOOOOOXXXXOOO",
".................oooooooooooo................................XXX",
"..oooooooooooooooOOOOOOOOOOOOoooooooooooooooooooooooooooOOOOOOOO",
"OoOOOOO......................................OOOOOOOOOOOoooooooo",
"XXXXXXXXXXXXXXX....................................XXXXXXXXXXXXX",
"OOOOOOOOOOOOOOOXXXXXXXXXXXXXXXXXXXXXXXXXXXXXXXXXXXXOOOOOOOOOOOOO",
".............................OOOOOOOOOOOO.......................",
".....OOOOOOOOOOOOOO.....................ooooooooooooooooo......O",
"OOOOO..............OOOOOOOOOOooooooooooo.................OOOOOOO",
"....................ooooXXXXXXXXXXXXXXXXXXXXXXXXXXXXXXXXX.......",
"oXXXXXXXXXXXXXXXXXXXXXXXOO...............................XXXXXXX",
"o..OOOOOOOOOOOOO..........OOOOOOOO..............................",
"OOO..............................OOOOOOO...............OOOOOOOO.",
"XXXXXXXX................................OOOOOOOOOOOOOOO.........",
"........XXXXXXXXXXXXXXXX................................XXXXXXX.",
"......OOOOOOO......oooooXXXXXXXXXoooooooooooooXXXXXXXXXXoooooooo",
"...................OOOOOOOOOOOOOOXXXXXXXXXXXXXOOOOOOOOOOOO......",
"...................................OOOO.........oooooooooooooooo",
"..........................................oooooo................",
"OOO.............................................................",
"...OXXXXXXXXXOOOO.........ooooooooooOOOOOOOOOOOOOOO.............",
".................OOOOOooooOOOOOOOOO................OOOOOOOOOOOOO",
"XXoooooooooooooooooooo..........................ooooooo.........",
"OO.........OOOOOOOOOO......................ooooo.......ooooo...O",
"...........XXXX.oooooooooooooooooooooooooooOOOOOOOOOOOOOOOOOoooo",
"......oooooooooXXXXXXXXXXXXXXXXXXXXXXXXXXXXXXXXXXXXXXXXXXXXXXX..",
"oooooo........................................................X.",
"OOoooooooooo...............................................OOOOO",
".oo.OOOO....ooooooooooooooooooooooOOOOOOOOOOOOOOoooooooooooooooo",
"........OOOOOOOOOOOO..............oooooooooooooo................",
"..XXXXXXXXXXXXXXXXXXXXXXXXXXXXXXXXXXXXXXXXXXXXXXXXXXXXXXXXXXXXXX",
".........OOOOO............................OOOOOOOOOOOOOO........",
"OOOOOOOOO.....OOOOOOOOOOOOOOOOOoooooooooooooooooooooooooooooo...",
"ooooooooooooooooooooooooooooooo..............................ooo",
"XXXXXXXooooooo..................................................",
"OOOOOOOXXXXXXXXXXXXXXOOOOOOOOOOOO..............................O",
".................ooooXXXXXXXXXXXXXXXXXX.................XXXXXXX.",
"..........................oooooooooooooXXXXXXXXXXXXXXXXX.......o",
"..........................................oooooooooooooooooooooo",
"OOOOOOOOOOOOOOOOOOOOOOO...............OOOOOOOoooooOOOOOOOOOOOOOO",
"..oooooooooooooooooooo.OOOOOOOOoooooooooooooo.....oooooooo......",
"oo....................ooooooooo...........................oooooo",
"OOOOOOOOO.................OOOOOOO...............................",
".........OOOOOOOOOOOOOOOOO.......OOOOOOOOOOOOOOOOOOOOOOOOOOOOOOO",
"................................................................"
};
