/* XPM */
static char *_534514534580[] = {
/* columns rows colors chars-per-pixel */
"64 64 2 1 ",
"  c #311E19",
". c #3E2620",
/* pixels */
"................................................................",
"................................................................",
"................................................................",
"...      .......................................................",
"   ......                          ....................         ",
"...................................                    ........ ",
"................................................................",
"................................................................",
"................................................................",
"                      ..  ...........................   ........",
"......................  ..                           ..         ",
"................................................................",
"................................................................",
"................................................................",
"................................................................",
"................................................................",
"     ...........................................................",
".....                                ....................       ",
".....................................                    .......",
"................................................................",
"................................................................",
"................................................................",
"................................................................",
"................................................................",
"                                       .........................",
".......................................                         ",
"................................................................",
"................................................................",
"................................................................",
"................................................................",
"................................................................",
"................................................................",
"....................                                            ",
"                    ............................................",
"................................................................",
"................................................................",
"................................................................",
"................................................................",
".......................................................         ",
"  ...............................................      .........",
"..       .................                       ...............",
".........                 ......................................",
"................................................................",
"................................................................",
"................................................................",
".................................................               ",
"...................................              ...............",
".............................      .............................",
"                             ...................................",
"................................................................",
"................................................................",
"................................................................",
"................................................................",
"................................................................",
" ......................                  ......                 ",
"                       ..................      .................",
"................................................................",
"................................................................",
"................................................................",
"................................................................",
"    ............................................................",
"....           ...............................................  ",
"...............              ............................      .",
".............................                 ........   ......."
};
